<?xml version="1.0" encoding="UTF-8" standalone="no"?>
<!DOCTYPE svg PUBLIC "-//W3C//DTD SVG 1.1//EN" "http://www.w3.org/Graphics/SVG/1.1/DTD/svg11.dtd">
<svg width="100%" height="100%" viewBox="0 0 200 200" version="1.1" xmlns="http://www.w3.org/2000/svg" xmlns:xlink="http://www.w3.org/1999/xlink" xml:space="preserve" xmlns:serif="http://www.serif.com/" style="fill-rule:evenodd;clip-rule:evenodd;stroke-linejoin:round;stroke-miterlimit:1.41421;">
    <g transform="matrix(1.3235,0,0,1.3235,-32.3503,-32.3503)">
        <g transform="matrix(0.678878,0,0,0.692216,-53.3572,-34.6407)">
            <circle cx="225.898" cy="194.507" r="103.62" style="fill:rgb(133,148,165);"/>
        </g>
        <g transform="matrix(0.614683,0,0,0.626759,-38.8557,-21.909)">
            <circle cx="225.898" cy="194.507" r="103.62" style="fill:rgb(45,60,81);"/>
        </g>
        <g transform="matrix(0.553506,0,0,0.553506,-10.7012,7.03834)">
            <path d="M303.846,116.955L289.086,129.227L271.119,127.386L262.733,146L251.278,154.386L242.483,156.841L200,173.613L186.438,185.068L173.347,180.977L170.688,167.951L174.165,154.795L168.438,140.273L163.733,129.432L158.824,120.432L153.301,120.636L145.529,123.704L133.87,130.659L124.256,131.886L123.029,125.545L118.938,120.023L110.961,117.773L102.165,119.818L95.415,121.454L93.575,122.477C93.575,122.477 121.518,50.551 200,50.617C200,50.617 268.304,46.302 303.846,116.955Z" style="fill:rgb(92,107,128);"/>
        </g>
        <g transform="matrix(0.553506,0,0,0.553506,-10.7012,7.03834)">
            <path d="M156.403,276.313L170.803,264.204L170.966,255.531L173.093,251.767L182.584,248.168L198.71,246.531L202.22,256.022L211.711,254.549L220.711,249.313L223.166,240.477L222.511,230.004L232.329,212.004L239.529,205.459L249.675,202.513L257.529,207.259L268.493,212.004L278.898,215.44L289.086,210.531L294.511,203.331L299.911,197.931L306.383,196.786L310.874,196.131L312.183,196.459C312.183,196.459 303.347,238.84 264.402,265.186C264.402,265.186 217.862,302.115 156.403,276.313Z" style="fill:rgb(92,107,128);"/>
        </g>
        <g transform="matrix(0.553506,0,0,0.553506,-10.7012,7.03834)">
            <path d="M200,38.363C270.144,38.363 327.091,96.429 327.091,167.951C327.091,239.472 270.144,297.539 200,297.539C129.856,297.539 72.909,239.472 72.909,167.951C72.909,96.429 129.856,38.363 200,38.363ZM200,50.617C263.511,50.617 315.073,103.192 315.073,167.951C315.073,232.709 263.511,285.285 200,285.285C136.489,285.285 84.927,232.709 84.927,167.951C84.927,103.192 136.489,50.617 200,50.617Z" style="fill:rgb(133,148,165);"/>
        </g>
        <g transform="matrix(0.391388,0.391388,-0.391388,0.391388,117.086,-183.993)">
            <path d="M319.01,267.428C316.516,263.441 315.073,258.729 315.073,253.683C315.073,239.351 326.709,227.715 341.041,227.715C355.373,227.715 367.008,239.351 367.008,253.683C367.008,258.729 365.566,263.441 363.071,267.428L363.159,267.428L340.975,300.385L318.923,267.428L319.01,267.428Z" style="fill:rgb(233,0,45);"/>
            <g transform="matrix(1,0,0,1,-2.67216,-2.6693)">
                <circle cx="343.713" cy="256.352" r="13.745" style="fill:rgb(175,0,39);"/>
            </g>
        </g>
    </g>
</svg>
